<svg id="visual" viewBox="0 0 960 540" width="960" height="540" xmlns="http://www.w3.org/2000/svg" xmlns:xlink="http://www.w3.org/1999/xlink" version="1.1"><rect x="0" y="0" width="960" height="540" fill="#eca76f"></rect><path d="M0 326L137 338L274 320L411 367L549 345L686 362L823 323L960 347L960 541L823 541L686 541L549 541L411 541L274 541L137 541L0 541Z" fill="#ed7620"></path><path d="M0 406L137 356L274 376L411 356L549 369L686 375L823 421L960 398L960 541L823 541L686 541L549 541L411 541L274 541L137 541L0 541Z" fill="#d3621c"></path><path d="M0 431L137 427L274 440L411 459L549 460L686 397L823 409L960 453L960 541L823 541L686 541L549 541L411 541L274 541L137 541L0 541Z" fill="#b84e18"></path><path d="M0 447L137 465L274 444L411 480L549 433L686 478L823 452L960 447L960 541L823 541L686 541L549 541L411 541L274 541L137 541L0 541Z" fill="#9d3b13"></path><path d="M0 515L137 506L274 480L411 501L549 494L686 485L823 487L960 508L960 541L823 541L686 541L549 541L411 541L274 541L137 541L0 541Z" fill="#83290d"></path></svg>