<svg id="visual" viewBox="0 0 900 600" width="900" height="600" xmlns="http://www.w3.org/2000/svg" xmlns:xlink="http://www.w3.org/1999/xlink" version="1.1"><rect x="0" y="0" width="900" height="600" fill="#ffffff"></rect><defs><linearGradient id="grad1_0" x1="33.3%" y1="0%" x2="100%" y2="100%"><stop offset="20%" stop-color="#f7a80f" stop-opacity="1"></stop><stop offset="80%" stop-color="#f7a80f" stop-opacity="1"></stop></linearGradient></defs><defs><linearGradient id="grad1_1" x1="33.3%" y1="0%" x2="100%" y2="100%"><stop offset="20%" stop-color="#f7a80f" stop-opacity="1"></stop><stop offset="80%" stop-color="#ffbd5b" stop-opacity="1"></stop></linearGradient></defs><defs><linearGradient id="grad1_2" x1="33.3%" y1="0%" x2="100%" y2="100%"><stop offset="20%" stop-color="#ffd392" stop-opacity="1"></stop><stop offset="80%" stop-color="#ffbd5b" stop-opacity="1"></stop></linearGradient></defs><defs><linearGradient id="grad1_3" x1="33.3%" y1="0%" x2="100%" y2="100%"><stop offset="20%" stop-color="#ffd392" stop-opacity="1"></stop><stop offset="80%" stop-color="#ffe9c8" stop-opacity="1"></stop></linearGradient></defs><defs><linearGradient id="grad1_4" x1="33.3%" y1="0%" x2="100%" y2="100%"><stop offset="20%" stop-color="#ffffff" stop-opacity="1"></stop><stop offset="80%" stop-color="#ffe9c8" stop-opacity="1"></stop></linearGradient></defs><defs><linearGradient id="grad2_0" x1="0%" y1="0%" x2="66.7%" y2="100%"><stop offset="20%" stop-color="#f7a80f" stop-opacity="1"></stop><stop offset="80%" stop-color="#f7a80f" stop-opacity="1"></stop></linearGradient></defs><defs><linearGradient id="grad2_1" x1="0%" y1="0%" x2="66.7%" y2="100%"><stop offset="20%" stop-color="#ffbd5b" stop-opacity="1"></stop><stop offset="80%" stop-color="#f7a80f" stop-opacity="1"></stop></linearGradient></defs><defs><linearGradient id="grad2_2" x1="0%" y1="0%" x2="66.7%" y2="100%"><stop offset="20%" stop-color="#ffbd5b" stop-opacity="1"></stop><stop offset="80%" stop-color="#ffd392" stop-opacity="1"></stop></linearGradient></defs><defs><linearGradient id="grad2_3" x1="0%" y1="0%" x2="66.7%" y2="100%"><stop offset="20%" stop-color="#ffe9c8" stop-opacity="1"></stop><stop offset="80%" stop-color="#ffd392" stop-opacity="1"></stop></linearGradient></defs><defs><linearGradient id="grad2_4" x1="0%" y1="0%" x2="66.7%" y2="100%"><stop offset="20%" stop-color="#ffe9c8" stop-opacity="1"></stop><stop offset="80%" stop-color="#ffffff" stop-opacity="1"></stop></linearGradient></defs><g transform="translate(900, 0)"><path d="M0 486.7C-42.4 444.4 -84.8 402 -121.8 374.7C-158.7 347.4 -190 335.3 -236.9 326C-283.7 316.8 -346 310.5 -387.5 281.5C-429.1 252.6 -449.8 201.1 -462.9 150.4C-476 99.7 -481.4 49.9 -486.7 0L0 0Z" fill="#fff4e4"></path><path d="M0 389.4C-33.9 355.5 -67.9 321.6 -97.4 299.8C-126.9 278 -152 268.2 -189.5 260.8C-227 253.4 -276.8 248.4 -310 225.2C-343.2 202.1 -359.9 160.9 -370.3 120.3C-380.8 79.8 -385.1 39.9 -389.4 0L0 0Z" fill="#ffddad"></path><path d="M0 292C-25.5 266.6 -50.9 241.2 -73.1 224.8C-95.2 208.5 -114 201.2 -142.1 195.6C-170.2 190.1 -207.6 186.3 -232.5 168.9C-257.4 151.6 -269.9 120.7 -277.8 90.2C-285.6 59.8 -288.8 29.9 -292 0L0 0Z" fill="#ffc877"></path><path d="M0 194.7C-17 177.7 -33.9 160.8 -48.7 149.9C-63.5 139 -76 134.1 -94.8 130.4C-113.5 126.7 -138.4 124.2 -155 112.6C-171.6 101.1 -179.9 80.4 -185.2 60.2C-190.4 39.9 -192.6 19.9 -194.7 0L0 0Z" fill="#fcb23d"></path><path d="M0 97.3C-8.5 88.9 -17 80.4 -24.4 74.9C-31.7 69.5 -38 67.1 -47.4 65.2C-56.7 63.4 -69.2 62.1 -77.5 56.3C-85.8 50.5 -90 40.2 -92.6 30.1C-95.2 19.9 -96.3 10 -97.3 0L0 0Z" fill="#f7a80f"></path></g><g transform="translate(0, 600)"><path d="M0 -486.7C39.8 -438.5 79.6 -390.2 116.5 -358.5C153.4 -326.9 187.3 -311.8 208.7 -287.2C230.1 -262.6 238.9 -228.6 287.2 -208.7C335.5 -188.7 423.1 -182.8 462.9 -150.4C502.7 -118 494.7 -59 486.7 0L0 0Z" fill="#fff4e4"></path><path d="M0 -389.4C31.9 -350.8 63.7 -312.2 93.2 -286.8C122.7 -261.5 149.8 -249.4 166.9 -229.8C184 -210.1 191.2 -182.9 229.8 -166.9C268.4 -151 338.5 -146.3 370.3 -120.3C402.2 -94.4 395.8 -47.2 389.4 0L0 0Z" fill="#ffddad"></path><path d="M0 -292C23.9 -263.1 47.8 -234.1 69.9 -215.1C92 -196.1 112.4 -187.1 125.2 -172.3C138 -157.6 143.4 -137.2 172.3 -125.2C201.3 -113.2 253.9 -109.7 277.8 -90.2C301.6 -70.8 296.8 -35.4 292 0L0 0Z" fill="#ffc877"></path><path d="M0 -194.7C15.9 -175.4 31.9 -156.1 46.6 -143.4C61.3 -130.7 74.9 -124.7 83.5 -114.9C92 -105.1 95.6 -91.4 114.9 -83.5C134.2 -75.5 169.2 -73.1 185.2 -60.2C201.1 -47.2 197.9 -23.6 194.7 0L0 0Z" fill="#fcb23d"></path><path d="M0 -97.3C8 -87.7 15.9 -78 23.3 -71.7C30.7 -65.4 37.5 -62.4 41.7 -57.4C46 -52.5 47.8 -45.7 57.4 -41.7C67.1 -37.7 84.6 -36.6 92.6 -30.1C100.5 -23.6 98.9 -11.8 97.3 0L0 0Z" fill="#f7a80f"></path></g></svg>